# xmcd CD database file
#
# Track frame offsets:
#	150
#	9519
#	24047
#	35521
#	52878
#	63650
#	77449
#	91405
#	108641
#	121772
#	132672
#	144980
#	156875
#	170847
#	185067
#	195751
#
# Disc length: 2779 seconds
#
# Revision: 0
# Processed by: cddbd v1.5.2PL0 Copyright (c) Steve Scherf et al.
# Submitted via: ACXtractor (MTCDDB.DLL V2003.07.15)
#
DISCID=cd0ad910
DTITLE=Pete Smith and Gordon Parsons - Nulla Nulla Winds &Rythm of the Range
DYEAR=2007
DGENRE=Country
TTITLE0=The Singing Waterfall
TTITLE1=Beauty of our Land
TTITLE2=The Rodeo is On
TTITLE3=The bushland that I Love
TTITLE4=An Old Hillbilly from Way Back
TTITLE5=Rockin Over the River
TTITLE6=The Ellensborough Falls
TTITLE7=Rollin' Wagons
TTITLE8=Bottle Take Effect
TTITLE9=Way up North
TTITLE10=I Cried a Mile
TTITLE11=Rythm of the Rangers
TTITLE12=No One but Me
TTITLE13=Yesterdays Kisses
TTITLE14=Itchy Feet
TTITLE15=The Bottle let me Down
EXTD=ID3G:   2 YEAR: 2007
EXTT0=
EXTT1=
EXTT2=
EXTT3=
EXTT4=
EXTT5=
EXTT6=
EXTT7=
EXTT8=
EXTT9=
EXTT10=
EXTT11=
EXTT12=
EXTT13=
EXTT14=
EXTT15=
PLAYORDER=
